<?xml version="1.0" standalone="no"?>
<!DOCTYPE svg PUBLIC "-//W3C//DTD SVG 20010904//EN"
 "http://www.w3.org/TR/2001/REC-SVG-20010904/DTD/svg10.dtd">
<svg version="1.0" xmlns="http://www.w3.org/2000/svg"
 width="640.000000pt" height="300.000000pt" viewBox="0 0 640.000000 300.000000"
 preserveAspectRatio="xMidYMid meet">

<g transform="translate(0.000000,300.000000) scale(0.100000,-0.100000)"
fill="#000000" stroke="none">
<path d="M384 2985 c-7 -17 12 -45 29 -45 6 0 19 -7 29 -17 27 -25 30 -12 7
35 -22 43 -54 57 -65 27z"/>
<path d="M1466 2937 c-39 -71 -60 -94 -71 -77 -4 7 -19 4 -43 -9 -22 -12 -66
-22 -107 -24 -49 -4 -91 -15 -140 -37 -38 -17 -72 -34 -75 -38 -8 -11 -63 -48
-82 -55 -10 -3 -18 -11 -18 -17 0 -20 34 -9 99 33 125 83 140 90 155 78 22
-18 14 -108 -14 -161 -20 -38 -24 -58 -23 -135 1 -49 6 -101 12 -115 10 -25
14 -17 13 30 -1 17 1 19 4 7 3 -9 9 -15 12 -13 4 2 7 -28 6 -67 -1 -112 -3
-139 -12 -133 -5 3 -9 0 -9 -7 -1 -7 -6 -52 -12 -102 -6 -49 -10 -97 -10 -105
2 -31 28 107 29 150 0 81 18 28 34 -105 8 -71 17 -155 21 -185 28 -285 4 -701
-61 -1038 -14 -73 -24 -136 -21 -138 11 -11 115 234 248 586 23 63 47 118 52
121 5 4 5 34 -1 72 -6 36 -8 74 -5 85 2 11 0 23 -6 26 -6 4 -11 12 -11 19 0 6
7 2 15 -10 10 -14 21 -20 32 -16 11 4 14 3 9 -6 -4 -6 -2 -19 5 -27 11 -13 15
-11 35 13 13 15 23 36 24 45 0 16 74 68 97 68 6 0 11 -54 12 -135 2 -93 -1
-135 -9 -135 -8 0 -7 -6 1 -22 7 -14 9 -40 4 -77 -4 -31 -7 -81 -6 -111 1 -30
-3 -116 -10 -190 -6 -74 -13 -166 -15 -204 -6 -114 -57 -195 -136 -216 -51
-14 -119 -4 -136 21 -13 19 -38 17 -27 -2 4 -5 1 -9 -4 -9 -6 0 -11 6 -11 14
0 18 -31 29 -54 20 -9 -3 -16 -1 -16 5 0 18 -42 12 -90 -14 -35 -19 -40 -24
-22 -25 12 0 22 5 22 11 0 5 5 7 10 4 23 -14 8 -30 -29 -31 -21 -1 -47 -7 -57
-13 -16 -9 -14 -10 11 -4 17 4 39 6 50 4 11 -1 41 -3 67 -5 26 -1 50 -5 54 -9
13 -13 82 -7 97 7 10 10 27 13 55 9 72 -10 113 4 160 55 23 25 40 39 38 31 -3
-8 -7 -36 -10 -62 -3 -39 -1 -46 10 -37 7 7 23 10 36 8 18 -2 24 -11 29 -41 4
-27 2 -37 -8 -37 -7 0 -13 -4 -13 -10 0 -5 11 -10 25 -10 14 0 25 5 25 11 0 7
7 17 17 24 11 8 14 18 9 31 -8 18 -9 18 -17 -4 -11 -30 -27 -28 -22 2 3 16 13
26 27 28 19 3 21 9 22 68 0 36 4 153 9 260 4 107 10 233 12 280 2 47 5 105 7
130 2 25 4 88 6 140 1 58 5 85 9 70 7 -24 7 -24 14 9 12 57 9 243 -4 235 -6
-3 -4 5 6 19 16 25 18 56 15 255 l0 44 -31 -26 c-17 -14 -36 -26 -42 -26 -22
0 58 59 88 65 49 10 118 -18 193 -79 76 -60 84 -63 121 -42 l23 13 -23 6 c-13
3 -26 2 -29 -3 -7 -11 -37 -7 -50 6 -6 6 -12 25 -13 42 -1 18 -6 32 -12 32 -5
0 -4 4 3 9 10 6 10 10 -2 21 -9 7 -13 16 -10 22 3 5 -5 6 -20 2 -27 -6 -60 11
-51 27 3 4 -4 13 -15 19 -15 8 -20 8 -20 -1 0 -8 -4 -8 -13 -1 -20 17 -118 25
-150 13 -15 -6 -32 -22 -37 -35 -5 -14 -17 -29 -27 -34 -26 -13 -146 -8 -151
6 -2 7 6 12 18 12 20 0 20 1 5 16 -23 23 -16 78 10 83 11 2 22 6 25 10 7 10
93 41 113 41 21 0 21 12 2 50 -19 36 -28 37 -43 8 l-11 -23 0 22 c-1 12 -5 24
-10 27 -12 8 -74 -19 -91 -39 -7 -9 -19 -14 -27 -11 -9 4 -13 -3 -13 -19 0
-14 -4 -25 -10 -25 -5 0 -7 7 -4 15 4 9 0 15 -10 15 -17 0 -22 -25 -7 -34 12
-8 7 -41 -5 -40 -5 0 -21 4 -35 8 -20 6 -25 13 -22 27 4 13 -2 21 -19 28 -20
7 -25 17 -26 49 -1 22 -7 53 -12 68 -7 17 -7 30 -1 33 5 3 9 17 9 31 2 104 9
218 16 233 13 28 -12 21 -46 -13 -17 -17 -33 -28 -36 -25 -9 8 14 40 26 38 5
-1 8 7 5 17 -5 18 0 20 50 20 34 0 61 -5 69 -14 14 -13 88 -27 88 -16 0 3 15
14 33 25 17 10 38 25 45 32 7 7 19 13 26 13 8 0 19 7 26 15 7 9 19 14 27 11 8
-3 12 -2 9 3 -3 5 6 17 19 27 14 10 25 27 25 37 0 10 13 37 29 60 16 23 32 57
36 75 l7 32 -165 0 -165 0 -36 -63z m29 -92 c-16 -14 -34 -25 -39 -25 -6 0 5
11 24 25 43 32 54 32 15 0z m-227 -391 c4 2 8 -46 9 -107 2 -102 20 -213 45
-276 6 -17 5 -26 -2 -31 -8 -5 -7 -9 4 -13 9 -4 16 -16 16 -27 0 -12 4 -19 9
-16 25 16 169 -370 147 -392 -3 -2 -8 3 -12 12 -3 9 -12 16 -20 16 -7 0 -11 6
-8 13 3 8 0 27 -6 43 -6 16 -13 44 -16 63 -2 19 -10 42 -17 50 -8 9 -26 42
-42 75 -20 43 -30 55 -37 45 -6 -10 -7 -6 -3 10 5 15 3 21 -3 17 -14 -8 -57
103 -76 197 -17 82 -22 292 -7 301 5 3 8 14 6 24 -1 9 0 11 2 4 3 -7 8 -10 11
-8z m339 -216 c-3 -8 -6 -5 -6 6 -1 11 2 17 5 13 3 -3 4 -12 1 -19z m-192
-471 c4 5 5 3 2 -3 -4 -7 0 -28 8 -48 8 -19 14 -50 14 -68 -1 -21 -3 -25 -6
-13 -16 70 -26 97 -49 131 -26 39 -26 39 -2 16 14 -12 28 -19 33 -15z m340
-389 c-8 -103 -15 -97 -15 13 1 69 3 89 11 77 6 -11 8 -48 4 -90z m-58 -565
c-3 -10 -5 -4 -5 12 0 17 2 24 5 18 2 -7 2 -21 0 -30z m-17 -171 c-9 -13 -10
-5 -6 38 3 30 7 69 8 85 1 17 3 0 5 -38 2 -38 -1 -75 -7 -85z"/>
<path d="M1323 1957 c-3 -6 -1 -7 5 -3 6 3 15 -2 21 -11 9 -16 10 -16 8 3 -1
21 -23 28 -34 11z"/>
<path d="M1897 2979 c-8 -31 4 -89 18 -89 16 0 25 -22 25 -61 0 -46 27 -35 54
22 13 30 26 47 30 40 4 -6 4 -20 1 -31 -4 -12 -2 -20 5 -20 6 0 8 5 5 10 -3 6
-1 10 4 10 6 0 11 6 11 14 0 7 7 19 15 26 13 11 14 10 9 -5 -5 -12 -4 -16 4
-11 6 3 16 -2 21 -13 14 -25 14 -34 1 -26 -13 8 -13 2 3 -27 7 -14 18 -23 25
-20 9 3 12 -3 10 -14 -3 -16 3 -18 40 -17 28 2 40 -1 36 -8 -4 -7 1 -9 12 -6
11 3 36 8 57 12 21 3 35 10 32 14 -2 5 3 8 12 7 12 -1 19 9 23 29 4 22 11 30
28 31 14 1 22 -4 22 -15 0 -24 20 -41 46 -41 28 0 42 -19 23 -31 -11 -7 -10
-9 4 -9 20 0 22 -11 5 -29 -9 -10 -9 -12 -1 -7 16 9 29 -14 13 -24 -14 -8 7
-57 34 -79 9 -8 16 -23 16 -36 0 -54 46 -155 71 -155 4 0 10 12 14 27 3 15 21
41 40 58 18 17 40 45 48 62 15 27 14 32 -3 60 -24 41 -81 83 -111 83 -19 0
-21 2 -9 10 11 7 11 10 2 10 -16 0 17 49 34 50 9 0 23 28 24 48 0 1 6 15 15
32 8 16 15 36 15 45 0 22 20 40 77 70 l48 25 -377 -1 c-249 0 -378 -3 -378
-10 0 -6 4 -8 9 -5 18 11 20 -26 4 -62 -14 -32 -17 -34 -20 -15 -4 20 -9 22
-46 18 -40 -3 -41 -3 -18 10 14 7 30 11 37 8 7 -2 15 0 19 6 4 7 0 8 -11 4
-13 -5 -16 -3 -11 10 4 10 1 17 -6 18 -7 0 -3 4 7 8 12 5 -6 8 -46 9 -59 2
-66 0 -71 -19z m53 -39 c0 -5 -4 -10 -10 -10 -5 0 -10 5 -10 10 0 6 5 10 10
10 6 0 10 -4 10 -10z m487 -66 c-3 -3 -12 -4 -19 -1 -8 3 -5 6 6 6 11 1 17 -2
13 -5z m86 -162 c3 -24 1 -40 -4 -36 -5 3 -9 24 -9 46 0 52 7 46 13 -10z m36
-2 c0 -9 -4 -8 -9 5 -5 11 -9 27 -9 35 0 9 4 8 9 -5 5 -11 9 -27 9 -35z m21
-79 c-1 -10 -6 -7 -15 9 -19 33 -18 50 0 26 8 -11 15 -27 15 -35z m72 22 c20
-18 24 -63 7 -80 -14 -14 -48 16 -41 36 3 7 -2 18 -11 23 -10 5 -17 16 -17 23
0 20 39 19 62 -2z m-80 -118 c3 -14 2 -25 -2 -25 -4 0 -10 13 -12 29 -5 36 8
32 14 -4z"/>
<path d="M2900 2938 c0 -35 -3 -74 -6 -88 -6 -23 -5 -24 10 -9 10 9 23 34 31
55 11 33 11 41 -1 55 -8 8 -14 21 -14 27 0 6 -4 14 -10 17 -6 4 -10 -17 -10
-57z"/>
<path d="M166 2975 c-7 -20 3 -45 19 -45 7 0 24 -9 39 -21 21 -16 26 -17 26
-5 0 8 -4 17 -9 21 -5 3 -12 19 -16 35 -5 23 -12 30 -30 30 -12 0 -25 -7 -29
-15z"/>
<path d="M1851 2885 c-1 -21 15 -52 23 -45 2 3 -2 19 -9 35 -10 23 -14 25 -14
10z"/>
<path d="M192 2808 c-7 -7 -12 -25 -12 -40 0 -24 -4 -28 -28 -28 -16 0 -37 -6
-47 -14 -18 -13 -18 -14 3 -20 11 -4 24 -16 27 -27 7 -22 50 -43 71 -35 21 8
30 77 12 90 -10 8 -12 19 -7 37 8 33 -2 54 -19 37z"/>
<path d="M1836 2776 c4 -16 7 -38 8 -50 1 -26 46 -37 46 -12 0 9 -4 16 -10 16
-5 0 -19 17 -30 38 -18 33 -19 34 -14 8z"/>
<path d="M1909 2769 l-21 -21 23 -24 c12 -13 28 -24 34 -24 17 0 28 72 12 82
-18 12 -25 10 -48 -13z m31 -24 c0 -8 -7 -15 -15 -15 -16 0 -20 12 -8 23 11
12 23 8 23 -8z"/>
<path d="M2425 2670 c3 -5 8 -10 11 -10 2 0 4 5 4 10 0 6 -5 10 -11 10 -5 0
-7 -4 -4 -10z"/>
<path d="M206 2621 c-5 -7 -5 -15 -2 -18 3 -3 1 -12 -5 -20 -14 -17 2 -17 24
0 15 11 16 15 4 31 -10 14 -16 16 -21 7z"/>
<path d="M116 2575 c4 -8 10 -15 15 -15 5 0 9 7 9 15 0 8 -7 15 -15 15 -9 0
-12 -6 -9 -15z"/>
<path d="M2710 2500 c-13 -8 -13 -10 2 -10 9 0 20 5 23 10 8 13 -5 13 -25 0z"/>
<path d="M2263 2387 c-68 -36 -158 -122 -159 -151 -3 -41 43 -35 79 10 16 19
26 38 23 41 -3 4 -13 -2 -20 -13 -12 -16 -14 -16 -12 -2 2 18 80 98 96 98 5 0
13 -8 18 -17 8 -13 -1 -27 -43 -65 -49 -45 -97 -129 -83 -144 3 -3 10 9 16 25
6 17 13 31 16 31 2 0 4 -24 4 -54 -1 -65 7 -79 38 -72 16 4 26 1 33 -11 8 -14
12 -15 25 -4 20 17 20 44 0 82 -8 17 -14 45 -12 62 2 27 7 32 28 32 18 0 25
-5 24 -17 -1 -10 4 -18 12 -18 8 0 14 -7 14 -15 0 -8 12 -18 26 -21 21 -5 32
-1 56 25 32 35 57 39 93 15 27 -17 44 -12 46 14 1 11 4 8 9 -8 7 -22 8 -23 9
-4 1 24 -24 51 -33 35 -3 -5 -3 -17 0 -28 5 -13 4 -15 -5 -7 -6 6 -13 24 -14
41 -1 17 -4 31 -7 30 -3 -1 -17 7 -32 17 -27 17 -27 19 -10 42 20 28 30 29 54
7 10 -9 18 -12 18 -6 0 5 -9 18 -20 28 -19 18 -23 18 -74 2 -63 -20 -67 -21
-65 -4 3 27 -2 32 -33 32 -18 0 -42 4 -53 8 -13 4 -35 -1 -62 -16z m57 -7 c0
-5 -5 -10 -11 -10 -5 0 -7 5 -4 10 3 6 8 10 11 10 2 0 4 -4 4 -10z m76 -112
l17 -33 -27 24 c-27 25 -33 41 -16 41 5 0 17 -15 26 -32z m-106 -13 c0 -8 -4
-15 -10 -15 -5 0 -10 7 -10 15 0 8 5 15 10 15 6 0 10 -7 10 -15z m-61 -76
c-14 -27 -19 -24 -16 10 1 22 5 27 14 19 9 -7 10 -16 2 -29z"/>
<path d="M1152 2330 c0 -14 2 -19 5 -12 2 6 2 18 0 25 -3 6 -5 1 -5 -13z"/>
<path d="M2265 2341 c-3 -6 -11 -8 -17 -5 -6 4 -8 2 -4 -4 3 -5 0 -13 -6 -15
-7 -3 -8 -6 -3 -6 14 -1 50 28 43 35 -3 3 -9 0 -13 -5z"/>
<path d="M2515 2310 c10 -11 20 -20 23 -20 3 0 -3 9 -13 20 -10 11 -20 20 -23
20 -3 0 3 -9 13 -20z"/>
<path d="M2290 2181 c0 -5 6 -14 14 -20 12 -10 13 -8 9 8 -5 21 -23 30 -23 12z"/>
<path d="M2120 2075 c0 -8 5 -15 10 -15 6 0 10 7 10 15 0 8 -4 15 -10 15 -5 0
-10 -7 -10 -15z"/>
<path d="M2120 2035 c0 -8 5 -15 10 -15 6 0 10 7 10 15 0 8 -4 15 -10 15 -5 0
-10 -7 -10 -15z"/>
<path d="M2112 1989 c2 -7 10 -15 17 -17 8 -3 12 1 9 9 -2 7 -10 15 -17 17 -8
3 -12 -1 -9 -9z"/>
<path d="M666 1913 c-12 -40 -17 -98 -8 -83 11 17 26 100 19 100 -3 0 -8 -8
-11 -17z"/>
<path d="M1115 1770 c-6 -9 -10 -29 -22 -108 -4 -24 -9 -32 -20 -28 -8 3 -21
6 -29 6 -9 0 -14 12 -15 33 -1 26 -2 27 -6 7 -2 -14 -9 -35 -14 -46 -14 -28 4
-64 33 -64 17 0 18 -2 8 -15 -7 -8 -8 -15 -3 -15 22 0 61 76 68 132 3 32 10
60 15 63 10 6 9 45 -2 45 -4 0 -10 -4 -13 -10z"/>
<path d="M1005 1528 c-2 -7 -7 -35 -10 -62 -6 -45 -5 -49 9 -37 14 12 16 10
15 -15 0 -16 -8 -82 -17 -146 -10 -65 -15 -125 -12 -134 3 -9 16 70 28 175 13
105 26 199 29 208 4 11 3 14 -5 9 -7 -4 -12 -13 -12 -21 0 -8 -5 -17 -11 -21
-8 -4 -9 3 -4 25 6 30 -1 45 -10 19z"/>
<path d="M1472 1460 c0 -14 2 -19 5 -12 2 6 2 18 0 25 -3 6 -5 1 -5 -13z"/>
<path d="M4084 1443 c3 -21 6 -51 6 -67 0 -46 7 -27 14 42 6 54 5 62 -10 62
-14 0 -16 -7 -10 -37z"/>
<path d="M4149 1468 c-8 -16 -3 -76 12 -128 33 -118 68 -229 76 -244 4 -8 8
61 8 154 0 164 -1 169 -24 194 -20 21 -66 36 -72 24z"/>
<path d="M4380 1435 c13 -14 25 -23 27 -21 6 6 -30 46 -41 46 -5 0 1 -11 14
-25z"/>
<path d="M4290 1444 c0 -3 5 -14 10 -25 8 -15 8 -19 -2 -17 -10 2 -14 -26 -18
-115 -3 -66 -2 -121 3 -124 4 -2 6 -28 5 -56 l-1 -52 -6 55 c-5 48 -7 51 -12
23 -9 -51 8 -156 31 -202 12 -22 23 -41 25 -41 1 0 1 81 0 179 -1 176 7 224
20 118 12 -102 37 -221 58 -286 21 -65 117 -223 153 -251 10 -8 2 8 -19 36
-93 129 -109 215 -76 403 12 72 24 129 27 127 2 -3 -2 -38 -8 -78 -7 -40 -13
-118 -14 -173 -1 -112 14 -168 68 -245 18 -25 45 -72 61 -105 32 -65 53 -95
68 -95 8 0 58 49 168 167 17 17 25 33 19 35 -7 2 4 23 24 48 19 25 32 48 28
52 -4 4 -3 39 2 77 9 68 10 69 46 80 21 6 48 11 61 11 13 0 48 9 77 20 29 11
71 20 93 20 23 0 59 5 80 10 22 6 56 14 77 20 38 10 39 11 39 57 l1 48 -16
-32 c-19 -40 -47 -46 -38 -8 6 23 4 25 -26 25 -17 0 -40 -7 -50 -17 -12 -11
-18 -12 -18 -3 0 9 -7 8 -25 -4 -25 -17 -71 -19 -115 -7 -21 6 -32 1 -62 -31
-27 -27 -46 -38 -68 -38 -16 0 -30 -5 -30 -12 0 -6 -3 -9 -6 -5 -4 3 -13 -1
-21 -9 -13 -12 -13 -17 -1 -31 9 -12 9 -15 0 -9 -6 4 -19 21 -27 37 -9 16 -20
27 -26 23 -6 -3 -6 -10 -1 -17 5 -7 11 -29 14 -49 3 -32 2 -35 -14 -27 -20 11
-21 4 -20 -96 l1 -50 -10 40 c-5 22 -11 55 -13 73 -3 19 -7 36 -10 40 -9 8 -7
-69 2 -103 5 -17 6 -43 3 -60 -6 -27 -7 -25 -20 25 -8 30 -25 77 -38 104 -13
28 -21 42 -18 31 11 -36 25 -118 21 -122 -5 -5 -12 18 -21 72 -4 22 -11 45
-16 52 -7 7 -6 14 1 18 6 3 7 12 3 18 -4 7 -9 23 -11 37 -2 14 -12 55 -22 91
-22 73 -47 90 -44 30 2 -58 15 -121 24 -121 7 0 31 -110 29 -136 0 -5 -9 13
-20 40 -11 27 -18 55 -15 62 3 7 1 16 -3 19 -5 2 -14 26 -20 51 -18 72 -23 46
-7 -37 14 -73 25 -107 85 -263 17 -44 29 -82 27 -84 -7 -7 -46 56 -46 75 0 10
-7 29 -16 41 -22 32 -72 194 -90 292 -10 54 -30 114 -55 165 l-39 80 4 -52 c1
-29 1 -53 0 -53 -4 0 -34 57 -34 65 0 3 5 3 10 0 14 -9 12 7 -4 46 l-14 34 1
-47 c2 -49 -8 -72 -23 -49 -10 18 -40 -36 -40 -73 0 -14 -4 -28 -10 -31 -12
-8 -13 30 -1 53 15 30 23 74 11 67 -5 -3 -10 -2 -10 4 0 5 5 11 11 13 9 3 9
15 2 43 -9 32 -11 35 -13 15 l-1 -25 -10 25 c-7 17 -7 26 1 28 8 3 7 8 -1 18
-6 8 -15 11 -20 8 -5 -3 -9 2 -9 10 0 22 -17 20 -23 -1 -4 -17 -5 -17 -6 0 -1
15 -21 26 -21 11z m97 -316 c-3 -7 -5 -2 -5 12 0 14 2 19 5 13 2 -7 2 -19 0
-25z m-10 -70 c-3 -7 -5 -2 -5 12 0 14 2 19 5 13 2 -7 2 -19 0 -25z m-74 -66
c3 -24 3 -41 0 -39 -8 9 -21 76 -15 81 8 8 9 6 15 -42z m457 -188 c0 -8 -5
-12 -10 -9 -6 4 -8 11 -5 16 9 14 15 11 15 -7z"/>
<path d="M4110 1423 c0 -4 5 -15 10 -23 8 -13 10 -13 10 2 0 9 -4 20 -10 23
-5 3 -10 3 -10 -2z"/>
<path d="M4260 1400 c0 -11 2 -20 4 -20 2 0 6 9 9 20 3 11 1 20 -4 20 -5 0 -9
-9 -9 -20z"/>
<path d="M4132 1360 c0 -14 2 -19 5 -12 2 6 2 18 0 25 -3 6 -5 1 -5 -13z"/>
<path d="M1462 1345 c0 -16 2 -22 5 -12 2 9 2 23 0 30 -3 6 -5 -1 -5 -18z"/>
<path d="M4606 1295 c14 -25 28 -45 30 -45 7 0 -35 78 -45 85 -6 3 2 -15 15
-40z"/>
<path d="M3710 1235 c-14 -16 -10 -18 14 -9 9 3 16 10 16 15 0 14 -16 11 -30
-6z"/>
<path d="M5210 1225 c0 -14 -22 -19 -83 -18 -10 0 -16 -6 -13 -13 3 -9 -6 -10
-35 -7 -23 3 -39 1 -39 -4 0 -23 132 -26 328 -8 77 7 84 6 106 -14 23 -21 23
-21 156 -7 129 15 178 26 109 26 -19 0 -40 5 -47 12 -9 9 -12 9 -12 0 0 -10
-5 -10 -21 -1 -11 6 -41 12 -66 14 -25 1 -49 9 -54 16 -7 11 -11 11 -17 2 -10
-15 -149 -8 -170 9 -12 10 -16 10 -19 1 -3 -9 -10 -10 -22 -3 -23 12 -64 9
-73 -5 -5 -6 -8 -6 -8 3 0 6 -4 12 -10 12 -5 0 -10 -7 -10 -15z m277 -30 c0
-8 -4 -12 -9 -9 -4 3 -8 9 -8 15 0 5 4 9 8 9 5 0 9 -7 9 -15z"/>
<path d="M3906 1212 c-6 -10 35 -42 53 -42 6 0 22 -17 37 -37 20 -30 24 -33
19 -13 -11 40 -97 112 -109 92z"/>
<path d="M4601 1190 c0 -8 4 -24 9 -35 l9 -20 0 20 c0 11 -4 27 -9 35 -9 13
-10 13 -9 0z"/>
<path d="M4775 1180 c21 -24 26 -25 19 -6 -3 8 -13 17 -22 21 -13 5 -13 2 3
-15z"/>
<path d="M3672 1155 c-15 -31 -5 -32 33 0 l30 24 -26 1 c-18 0 -29 -8 -37 -25z"/>
<path d="M3848 1125 c-17 -23 -17 -24 3 -30 13 -5 25 -2 29 6 7 10 11 10 24
-1 9 -7 14 -15 11 -18 -6 -7 25 -42 37 -42 12 0 -29 70 -54 93 -26 22 -29 21
-50 -8z"/>
<path d="M980 1091 c0 -12 -5 -31 -10 -41 -6 -11 -6 -21 -1 -24 10 -7 26 72
17 81 -3 4 -6 -4 -6 -16z"/>
<path d="M4197 1020 c10 -20 12 -35 5 -43 -17 -22 -23 -65 -9 -70 6 -3 -1 -6
-17 -6 -28 -1 -29 -2 -10 -16 10 -8 14 -15 8 -15 -6 0 -11 -6 -11 -12 -1 -7
-4 -32 -8 -55 -6 -32 -4 -43 5 -43 8 0 10 -3 7 -7 -4 -3 1 -12 11 -20 16 -14
16 -14 0 -9 -10 3 -18 1 -18 -4 0 -6 5 -10 11 -10 6 0 3 -7 -5 -16 -9 -8 -16
-20 -16 -25 0 -16 19 -10 32 11 7 11 18 20 25 20 22 0 14 -20 -11 -31 -13 -6
-26 -21 -28 -34 -4 -20 -2 -22 38 -18 24 1 46 -1 49 -7 10 -16 22 -11 30 13 6
19 8 20 12 4 5 -18 6 -18 24 -1 10 9 19 28 19 41 0 24 15 32 23 11 6 -19 -30
-66 -65 -84 -28 -14 -31 -14 -43 3 -13 17 -14 17 -21 -2 -10 -26 -23 -35 -54
-35 -42 0 -56 14 -42 44 9 21 9 26 -2 26 -8 0 -24 12 -35 28 -16 20 -20 22
-15 7 5 -17 4 -18 -8 -5 -18 21 -77 23 -118 3 -35 -17 -77 -27 -160 -42 -25
-5 -66 -16 -92 -25 -46 -16 -48 -16 -85 6 -29 17 -60 24 -126 28 -48 3 -87 3
-87 0 0 -9 92 -95 127 -118 17 -12 39 -22 48 -22 9 0 13 -5 9 -11 -4 -7 -21
-9 -44 -5 -27 4 -55 -1 -101 -19 -35 -14 -102 -32 -149 -40 -47 -8 -112 -19
-145 -25 -33 -6 -75 -13 -94 -16 -46 -6 -49 -11 -15 -26 16 -6 36 -17 44 -24
30 -24 168 -92 280 -139 139 -58 165 -69 304 -134 132 -62 187 -67 273 -25 46
23 63 26 116 22 38 -3 75 -13 97 -27 33 -20 48 -21 241 -21 l206 0 -7 45 c-7
44 -44 109 -114 195 l-36 45 24 20 c13 11 26 31 29 45 6 24 46 86 57 88 30 5
59 26 60 44 0 4 -20 21 -45 38 -42 29 -51 47 -31 61 5 4 -2 13 -15 20 -22 11
-23 11 -10 -4 16 -20 1 -23 -18 -4 -10 10 -11 8 -5 -6 12 -32 -63 45 -85 88
-12 22 -46 76 -76 119 -30 43 -59 101 -66 127 -7 27 -25 62 -41 79 -15 17 -28
35 -28 41 0 5 -4 9 -9 9 -5 0 -3 -14 6 -30z m203 -360 c0 -5 -16 -28 -36 -49
-34 -39 -92 -67 -117 -58 -6 2 7 9 29 16 28 7 54 25 80 55 44 50 44 50 44 36z
m-402 -218 c15 -15 20 -16 31 -5 11 12 61 19 61 8 0 -5 -67 -36 -89 -41 -8 -1
-21 -10 -30 -19 -14 -15 -12 -15 27 1 37 14 45 15 53 3 12 -19 5 -35 -13 -31
-9 1 -21 -4 -27 -12 -7 -8 -19 -12 -27 -9 -8 3 -21 0 -29 -7 -9 -7 -26 -10
-41 -6 -25 7 -26 8 -9 26 10 11 21 17 25 15 4 -3 11 2 14 11 10 25 7 34 -9 34
-8 0 -15 -3 -15 -7 0 -5 -24 -8 -54 -8 -30 0 -58 -4 -63 -8 -11 -11 34 -47 58
-47 10 0 19 -4 19 -10 0 -21 -35 -9 -84 29 -63 48 -82 55 -166 60 -29 1 -32 3
-17 12 9 5 21 8 26 4 5 -3 31 -8 58 -11 26 -3 54 -11 61 -18 11 -10 23 -10 64
0 28 8 62 12 75 10 33 -6 38 10 5 20 l-27 8 35 6 c58 12 69 11 88 -8z m182 11
c0 -5 -13 -8 -29 -8 -16 0 -27 3 -24 8 2 4 15 7 29 7 13 0 24 -3 24 -7z m115
-9 c42 -7 80 -23 72 -30 -2 -2 -17 0 -33 5 -54 17 -116 23 -108 10 5 -9 2 -10
-10 -6 -10 4 -20 7 -22 7 -2 0 -4 4 -4 9 0 11 29 20 50 15 8 -1 33 -6 55 -10z
m-787 -34 c-9 -6 -38 -13 -65 -16 -26 -4 -59 -12 -73 -19 -20 -10 -32 -10 -60
1 -34 13 -34 14 -4 8 17 -2 44 0 60 6 16 6 49 13 73 16 25 2 47 7 50 9 2 3 11
5 20 5 14 -1 14 -2 -1 -10z m896 -32 c9 -12 16 -26 16 -31 0 -13 -29 12 -41
35 -14 26 6 23 25 -4z m-510 -2 c-3 -8 -17 -13 -37 -11 -43 4 -45 5 -22 15 33
14 65 12 59 -4z m480 -46 c9 0 17 -3 17 -7 10 -55 4 -62 -33 -42 -16 8 -23 8
-30 -2 -8 -11 -9 -10 -5 3 3 9 -1 19 -8 22 -8 3 -12 12 -9 20 3 8 0 17 -7 22
-9 5 -7 9 7 15 13 5 24 1 36 -12 9 -10 23 -19 32 -19z m-1259 20 c-3 -5 -12
-10 -18 -10 -7 0 -6 4 3 10 19 12 23 12 15 0z m435 -22 c0 -5 -9 -4 -20 2 -11
6 -20 12 -20 14 0 2 9 2 20 -1 11 -3 20 -9 20 -15z m-140 -3 c0 -22 -27 -37
-47 -27 -10 5 -24 7 -30 5 -12 -4 -19 18 -9 28 11 11 86 6 86 -6z m1030 -10
c7 -9 8 -15 2 -15 -5 0 -12 7 -16 15 -3 8 -4 15 -2 15 2 0 9 -7 16 -15z m-960
-5 c8 -5 11 -10 5 -10 -5 0 -17 5 -25 10 -8 5 -10 10 -5 10 6 0 17 -5 25 -10z
m58 -23 c10 -12 13 -57 4 -57 -9 0 -30 28 -25 34 3 3 -2 8 -11 12 -9 3 -13 10
-10 15 8 13 30 11 42 -4z m97 -17 c13 -5 14 -9 5 -9 -8 0 -24 4 -35 9 -13 5
-14 9 -5 9 8 0 24 -4 35 -9z m-110 -118 c-3 -3 -11 0 -18 7 -9 10 -8 11 6 5
10 -3 15 -9 12 -12z m470 -14 c32 -14 32 -26 0 -34 -27 -7 -82 14 -90 33 -6
17 54 17 90 1z m476 -14 c10 -13 10 -17 -2 -25 -23 -14 -29 -11 -29 16 0 29
12 32 31 9z"/>
<path d="M3955 430 c3 -5 8 -10 11 -10 2 0 4 5 4 10 0 6 -5 10 -11 10 -5 0 -7
-4 -4 -10z"/>
<path d="M4349 310 c25 -21 41 -26 41 -12 0 9 -44 32 -58 32 -4 -1 4 -10 17
-20z"/>
<path d="M3605 1030 c3 -5 10 -10 16 -10 5 0 9 5 9 10 0 6 -7 10 -16 10 -8 0
-12 -4 -9 -10z"/>
<path d="M4736 997 c3 -10 9 -15 12 -12 3 3 0 11 -7 18 -10 9 -11 8 -5 -6z"/>
<path d="M940 929 c-20 -65 -37 -158 -25 -134 10 21 54 199 50 203 -2 2 -13
-29 -25 -69z"/>
<path d="M4341 953 c0 -21 7 -56 14 -78 14 -39 14 -39 8 -5 -3 19 -5 54 -4 78
0 23 -3 42 -9 42 -5 0 -10 -17 -9 -37z"/>
<path d="M6299 911 c-28 -22 -65 -81 -50 -81 5 0 39 -13 74 -30 36 -16 68 -30
71 -30 3 0 6 36 6 80 l0 80 -39 0 c-23 0 -48 -8 -62 -19z"/>
<path d="M3512 883 c-11 -36 1 -45 18 -13 8 15 17 19 33 15 39 -12 98 -55 91
-67 -5 -8 -2 -9 9 -5 10 3 17 2 17 -3 0 -6 7 -10 15 -10 37 0 0 40 -78 84 -71
41 -92 40 -105 -1z"/>
<path d="M4321 844 c13 -35 59 -90 59 -71 0 8 -6 20 -14 26 -8 6 -19 25 -26
41 -15 37 -33 40 -19 4z"/>
<path d="M4383 836 c5 -28 18 -51 47 -79 22 -22 42 -38 44 -36 2 2 -18 38 -46
79 -49 74 -50 74 -45 36z"/>
<path d="M902 755 c0 -16 2 -22 5 -12 2 9 2 23 0 30 -3 6 -5 -1 -5 -18z"/>
<path d="M4400 751 c0 -7 23 -36 51 -64 l51 -52 -33 47 c-38 57 -69 87 -69 69z"/>
<path d="M871 714 c0 -11 3 -14 6 -6 3 7 2 16 -1 19 -3 4 -6 -2 -5 -13z"/>
<path d="M4470 704 c0 -12 120 -128 126 -122 2 2 -26 33 -61 68 -36 36 -65 60
-65 54z"/>
<path d="M880 661 c0 -6 4 -13 10 -16 6 -3 7 1 4 9 -7 18 -14 21 -14 7z"/>
<path d="M4441 655 c0 -17 23 -40 43 -43 17 -3 18 -2 7 12 -8 9 -16 14 -19 11
-3 -2 -11 3 -18 13 -7 9 -13 13 -13 7z"/>
<path d="M412 631 c-10 -6 -8 -10 9 -14 13 -4 25 -4 28 -2 2 3 -1 5 -8 5 -7 0
-9 5 -6 10 8 12 -5 13 -23 1z"/>
<path d="M3053 605 c-3 -9 -3 -18 -1 -21 3 -3 8 4 11 16 6 23 -1 27 -10 5z"/>
<path d="M3132 560 c19 -31 29 -57 25 -70 -4 -16 1 -23 17 -30 13 -5 26 -16
29 -24 4 -9 12 -16 19 -16 8 0 6 6 -5 17 -16 16 -15 18 11 35 26 17 26 18 5
19 -13 1 -29 2 -35 3 -7 1 -30 27 -50 59 -46 70 -59 76 -16 7z"/>
<path d="M965 560 c17 -11 37 -20 45 -20 8 0 -3 9 -25 20 -50 25 -58 25 -20 0z"/>
<path d="M1078 563 c7 -3 16 -2 19 1 4 3 -2 6 -13 5 -11 0 -14 -3 -6 -6z"/>
<path d="M3061 543 c-1 -27 -5 -33 -23 -33 -13 0 -30 -5 -38 -10 -11 -7 -4
-10 28 -10 37 0 45 -4 63 -32 12 -18 18 -24 13 -13 -4 11 -7 33 -6 48 1 15 -3
25 -8 22 -5 -3 -14 9 -19 27 l-9 33 -1 -32z"/>
<path d="M120 545 c-19 -7 -28 -14 -20 -15 25 -4 43 1 64 16 26 18 4 17 -44
-1z"/>
<path d="M4545 550 c3 -5 8 -10 11 -10 2 0 4 5 4 10 0 6 -5 10 -11 10 -5 0 -7
-4 -4 -10z"/>
<path d="M1636 505 c-3 -8 -1 -15 4 -15 6 0 10 7 10 15 0 8 -2 15 -4 15 -2 0
-6 -7 -10 -15z"/>
<path d="M4625 509 c-4 -6 -5 -13 -2 -16 7 -7 27 6 27 18 0 12 -17 12 -25 -2z"/>
<path d="M1610 480 c0 -5 5 -10 11 -10 5 0 7 5 4 10 -3 6 -8 10 -11 10 -2 0
-4 -4 -4 -10z"/>
<path d="M2727 476 c-3 -8 -21 -17 -39 -21 -37 -8 -70 -33 -62 -46 9 -16 37
-10 62 14 21 19 34 22 112 22 95 0 98 3 32 28 -52 21 -98 22 -105 3z"/>
<path d="M2510 418 c-36 -15 -100 -29 -137 -30 -18 -1 -33 -4 -33 -8 0 -3 -16
-4 -35 -2 -50 6 -43 -4 15 -23 45 -15 62 -15 138 -5 90 13 132 30 132 54 0 8
-10 16 -22 20 -28 7 -27 7 -58 -6z"/>
<path d="M1614 387 c-8 -23 -42 -231 -38 -238 2 -4 45 -9 96 -13 51 -4 109 -9
128 -11 19 -2 26 -2 15 2 -11 3 -23 10 -27 16 -3 6 -24 10 -45 9 -21 -1 -45 3
-53 8 -12 8 -11 10 8 10 19 0 21 2 10 14 -8 9 -15 10 -19 4 -4 -6 -10 -1 -14
11 -3 11 -12 21 -19 21 -13 0 -40 49 -32 58 3 2 1 12 -4 21 -5 10 -5 33 0 56
9 40 5 61 -6 32z"/>
<path d="M2124 267 c16 -24 16 -24 -8 -20 -19 4 -33 -3 -58 -29 -18 -19 -46
-39 -63 -45 -32 -10 -45 -40 -23 -54 9 -6 4 -9 -17 -10 -24 -1 -21 -3 15 -9
25 -5 101 -18 170 -30 151 -26 192 -21 328 42 48 22 170 46 217 43 17 -1 44
-3 62 -3 21 -1 43 -12 62 -31 35 -34 114 -57 151 -43 l25 9 -25 8 c-27 8 -78
43 -121 83 -22 19 -40 24 -104 28 -49 3 -91 12 -116 24 -45 23 -56 25 -40 7 9
-11 1 -14 -40 -13 -54 1 -80 -14 -61 -37 30 -36 -159 6 -276 61 -43 20 -81 38
-85 40 -5 3 -2 -7 7 -21z m66 -103 c0 -8 -6 -14 -14 -14 -9 0 -12 7 -9 20 6
22 23 18 23 -6z m-35 6 c-3 -5 -12 -10 -20 -10 -8 0 -17 5 -20 10 -4 6 5 10
20 10 15 0 24 -4 20 -10z"/>
<path d="M6381 120 c-7 -18 -15 -46 -16 -63 -1 -17 -7 -33 -14 -35 -21 -7 -11
-22 14 -22 30 0 38 23 33 98 l-3 53 -14 -31z"/>
<path d="M1850 120 c8 -5 20 -10 25 -10 6 0 3 5 -5 10 -8 5 -19 10 -25 10 -5
0 -3 -5 5 -10z"/>
</g>
</svg>
