<?xml version="1.0" standalone="no"?>
<!DOCTYPE svg PUBLIC "-//W3C//DTD SVG 20010904//EN"
 "http://www.w3.org/TR/2001/REC-SVG-20010904/DTD/svg10.dtd">
<svg version="1.0" xmlns="http://www.w3.org/2000/svg"
 width="840.000000pt" height="268.000000pt" viewBox="0 0 840.000000 268.000000"
 preserveAspectRatio="xMidYMid meet">

<g transform="translate(0.000000,268.000000) scale(0.100000,-0.100000)"
fill="#000000" stroke="none">
<path d="M6841 2242 c-19 -9 -44 -30 -55 -45 -20 -27 -21 -43 -24 -336 l-3
-308 107 -7 c498 -34 956 -264 1253 -630 l56 -69 3 303 c3 429 33 400 -400
400 l-298 0 0 355 0 355 -302 0 c-269 0 -307 -2 -337 -18z"/>
<path d="M3290 1415 l0 -425 55 0 55 0 0 425 0 425 -55 0 -55 0 0 -425z"/>
<path d="M3630 1685 l-105 -105 34 0 c24 0 61 17 125 57 110 69 126 81 126
103 0 22 -31 50 -56 50 -11 0 -63 -44 -124 -105z"/>
<path d="M4536 1769 c-46 -36 -30 -100 29 -115 75 -19 112 99 40 126 -35 13
-38 13 -69 -11z"/>
<path d="M2765 1766 c-109 -35 -194 -105 -241 -201 -27 -57 -29 -67 -29 -185
0 -116 2 -129 28 -186 36 -77 104 -145 182 -181 56 -26 69 -28 185 -28 106 1
134 4 182 24 32 12 60 26 63 31 3 5 8 30 12 57 l6 48 -24 -18 c-13 -10 -53
-32 -89 -50 -55 -26 -76 -31 -135 -31 -120 0 -203 54 -254 164 -23 49 -26 67
-26 170 0 103 3 121 26 171 49 104 127 160 236 167 72 5 116 -8 184 -54 28
-19 54 -34 58 -34 10 0 41 99 33 104 -4 2 -38 13 -76 25 -79 24 -254 28 -321
7z"/>
<path d="M4087 1535 c-22 -7 -49 -23 -61 -34 -30 -28 -36 -26 -36 9 0 30 -1
30 -55 30 l-55 0 0 -275 0 -275 54 0 54 0 4 183 c5 193 13 232 58 272 16 15
36 20 77 20 97 0 113 -42 113 -297 l0 -178 55 0 55 0 0 198 c0 108 -5 214 -11
235 -28 102 -141 152 -252 112z"/>
<path d="M4967 1536 c-67 -19 -126 -63 -162 -121 -28 -46 -30 -55 -30 -149 0
-89 3 -106 25 -146 52 -92 169 -148 284 -136 61 6 145 39 151 60 15 50 15 66
-1 66 -9 0 -29 -11 -46 -25 -99 -83 -243 -36 -287 94 -17 53 -13 160 8 207 49
107 186 135 262 53 41 -44 49 -40 73 39 7 20 2 25 -37 42 -59 26 -177 34 -240
16z"/>
<path d="M5474 1532 c-82 -29 -104 -47 -104 -87 0 -49 16 -52 55 -12 65 67
179 57 210 -17 32 -76 13 -98 -95 -116 -41 -6 -99 -22 -128 -36 -45 -20 -56
-30 -73 -69 -36 -81 -9 -154 74 -196 54 -28 132 -21 188 15 47 31 46 31 69 4
33 -41 156 -24 148 21 -2 10 -14 15 -33 16 l-30 0 -5 190 c-6 212 -14 241 -78
278 -47 28 -136 32 -198 9z m166 -346 c0 -71 -2 -75 -31 -100 -36 -31 -69 -41
-104 -32 -40 10 -65 42 -65 82 0 65 24 88 115 110 88 22 85 24 85 -60z"/>
<path d="M6060 1241 c0 -437 -25 -411 408 -411 l292 0 0 -350 0 -350 299 0
c310 0 336 3 379 42 29 28 28 59 -8 195 -144 549 -512 970 -983 1124 -102 33
-245 59 -329 59 l-58 0 0 -309z"/>
<path d="M3600 1265 l0 -275 55 0 55 0 0 275 0 275 -55 0 -55 0 0 -275z"/>
<path d="M4520 1265 l0 -275 55 0 55 0 0 275 0 275 -55 0 -55 0 0 -275z"/>
<path d="M5111 835 l-106 -105 35 0 c26 1 62 18 135 64 84 53 101 68 103 92 4
29 -18 54 -46 54 -9 0 -63 -47 -121 -105z"/>
<path d="M400 921 c-103 -32 -160 -106 -160 -210 0 -105 41 -152 182 -212 128
-54 158 -83 158 -152 0 -91 -58 -151 -146 -149 -53 0 -94 22 -136 72 -19 22
-39 40 -44 40 -15 0 -36 -111 -24 -126 25 -29 114 -56 185 -56 90 0 160 28
213 86 92 100 88 259 -8 322 -20 13 -74 40 -121 59 -107 44 -149 86 -149 148
0 49 19 81 60 102 62 32 156 6 182 -50 17 -38 40 -26 57 29 15 47 15 49 -8 67
-12 10 -39 23 -59 29 -42 11 -145 12 -182 1z"/>
<path d="M3217 913 c-4 -3 -7 -19 -7 -34 0 -30 -48 -382 -80 -591 -11 -69 -20
-131 -20 -137 0 -6 21 -11 49 -11 l48 0 8 103 c9 133 41 417 48 423 3 3 64
-112 136 -255 73 -144 137 -261 144 -261 7 0 43 62 80 138 84 170 199 382 207
382 6 0 26 -187 48 -445 l7 -80 63 -3 c72 -3 68 -14 47 133 -7 55 -25 208 -40
340 -34 314 -32 305 -55 305 -13 0 -35 -31 -80 -112 -34 -62 -103 -188 -153
-280 -51 -92 -95 -168 -98 -168 -10 0 -77 116 -199 348 -108 204 -128 231
-153 205z"/>
<path d="M2013 812 l-43 -16 0 -53 0 -53 -34 0 c-32 0 -34 -2 -32 -32 1 -29 5
-33 34 -36 l32 -3 0 -182 c0 -198 7 -241 45 -277 49 -46 195 -35 195 15 0 21
-3 23 -34 18 -46 -7 -73 10 -86 55 -5 20 -10 112 -10 205 l0 167 60 0 60 0 0
35 0 35 -60 0 -60 0 0 70 c0 78 0 78 -67 52z"/>
<path d="M1600 690 c-39 -7 -95 -34 -105 -50 -12 -20 -25 -10 -25 20 0 30 -1
30 -55 30 l-55 0 0 -275 0 -275 54 0 54 0 4 183 c5 198 14 241 62 272 39 26
111 23 141 -5 38 -35 45 -79 45 -272 l0 -178 55 0 55 0 0 193 c0 204 -7 255
-38 296 -38 51 -116 76 -192 61z"/>
<path d="M2432 689 c-24 -4 -62 -19 -85 -31 -38 -21 -42 -27 -45 -66 -4 -49
16 -57 41 -18 9 13 37 32 62 41 38 15 52 16 85 6 21 -6 48 -23 59 -38 24 -29
28 -95 8 -111 -7 -6 -53 -18 -102 -27 -144 -27 -191 -61 -202 -143 -8 -56 13
-108 55 -140 31 -24 44 -27 107 -27 62 0 77 4 114 28 l43 29 19 -21 c40 -43
141 -38 147 7 3 19 -1 22 -27 22 l-31 0 0 173 c-1 179 -9 227 -47 269 -40 44
-121 63 -201 47z m138 -352 c0 -63 -3 -76 -22 -94 -55 -50 -111 -57 -155 -19
-22 19 -28 32 -28 65 0 55 27 80 112 102 98 26 93 29 93 -54z"/>
<path d="M4896 690 c-16 -5 -44 -24 -63 -42 l-33 -32 0 37 0 37 -54 0 c-30 0
-56 -4 -58 -10 -1 -5 -2 -129 0 -275 l3 -265 54 0 55 0 0 185 c0 146 3 192 15
215 21 41 49 53 101 45 l43 -6 6 38 c4 21 9 46 12 56 3 10 -1 17 -11 17 -8 0
-20 2 -28 4 -7 2 -26 0 -42 -4z"/>
<path d="M880 663 c-52 -27 -55 -31 -58 -71 -3 -37 -1 -42 17 -42 12 0 21 4
21 10 0 17 44 50 81 60 72 20 135 -11 149 -73 10 -45 4 -73 -18 -82 -10 -3
-53 -13 -97 -21 -146 -28 -199 -71 -199 -164 0 -128 136 -190 266 -121 l54 28
28 -23 c29 -25 68 -30 110 -14 36 13 35 48 -1 52 l-28 3 -5 190 c-5 202 -7
210 -60 260 -29 28 -37 30 -118 33 -79 2 -92 0 -142 -25z m210 -326 c0 -68 -2
-75 -29 -101 -20 -20 -43 -30 -74 -33 -39 -5 -49 -2 -71 20 -19 19 -26 36 -26
64 1 60 30 86 125 109 78 19 75 22 75 -59z"/>
<path d="M4228 675 c-70 -26 -88 -44 -88 -86 0 -49 21 -52 56 -9 33 38 90 55
144 40 44 -12 65 -37 75 -91 9 -47 -9 -64 -83 -79 -132 -25 -156 -33 -189 -64
-21 -18 -38 -46 -42 -66 -31 -149 115 -238 263 -161 l56 30 25 -25 c26 -26 63
-31 114 -13 43 15 43 47 -1 51 l-33 3 -5 192 c-5 174 -7 194 -26 220 -41 55
-80 73 -158 72 -39 0 -87 -6 -108 -14z m182 -342 c-1 -78 -1 -78 -37 -105 -74
-57 -163 -24 -163 61 0 59 38 87 155 114 45 10 45 10 45 -70z"/>
<path d="M5080 415 l0 -275 55 0 55 0 0 275 0 275 -55 0 -55 0 0 -275z"/>
<path d="M5458 675 c-70 -26 -88 -44 -88 -86 0 -49 21 -52 56 -9 63 74 191 56
214 -32 20 -72 4 -85 -130 -108 -129 -22 -184 -70 -184 -160 0 -128 136 -190
266 -121 l54 28 29 -25 c25 -21 36 -24 77 -19 58 7 68 12 68 37 0 14 -8 20
-32 22 l-33 3 -5 192 c-5 174 -7 194 -26 220 -41 55 -80 73 -158 72 -39 0 -87
-6 -108 -14z m182 -338 c0 -68 -2 -75 -29 -101 -20 -20 -43 -30 -74 -33 -39
-5 -49 -2 -71 20 -19 19 -26 36 -26 64 1 60 30 86 125 109 78 19 75 22 75 -59z"/>
</g>
</svg>
